<?xml version="1.0" standalone="no"?>
<!DOCTYPE svg PUBLIC "-//W3C//DTD SVG 20010904//EN"
 "http://www.w3.org/TR/2001/REC-SVG-20010904/DTD/svg10.dtd">
<svg version="1.0" xmlns="http://www.w3.org/2000/svg"
 width="1258.000000pt" height="562.000000pt" viewBox="0 0 1258.000000 562.000000"
 preserveAspectRatio="xMidYMid meet">

<g transform="translate(0.000000,562.000000) scale(0.100000,-0.100000)"
fill="#000000" stroke="none">
<path d="M3060 3465 c-308 -66 -551 -310 -614 -617 -74 -358 109 -725 436
-878 307 -144 661 -84 901 151 38 38 68 71 66 74 -3 2 -37 11 -77 19 -40 8
-98 29 -128 45 l-56 30 -59 -41 c-96 -65 -185 -92 -304 -92 -79 -1 -114 4
-168 23 -375 128 -489 592 -215 877 202 211 530 219 746 19 l60 -56 60 20 c33
11 94 24 136 28 l77 8 -33 50 c-80 120 -213 233 -343 291 -138 61 -335 80
-485 49z"/>
<path d="M4942 3264 c-90 -63 -47 -194 64 -194 51 0 98 21 114 49 5 11 10 36
10 56 0 47 -13 71 -50 90 -38 20 -109 19 -138 -1z"/>
<path d="M6960 2766 l0 -466 45 0 45 0 -2 463 -3 462 -42 3 -43 3 0 -465z"/>
<path d="M7296 3206 c-31 -31 -32 -45 -5 -80 38 -48 109 -23 109 38 0 37 -12
51 -52 61 -21 5 -33 1 -52 -19z"/>
<path d="M4390 3040 l0 -80 -50 0 -50 0 0 -74 0 -75 53 -3 52 -3 5 -185 c5
-198 8 -209 63 -268 56 -58 179 -78 285 -47 29 9 52 21 52 28 0 11 -38 119
-45 125 -2 2 -21 -2 -44 -9 -49 -15 -93 0 -110 37 -6 15 -11 85 -11 174 l0
150 85 0 86 0 -3 73 -3 72 -82 3 -83 3 0 79 0 80 -100 0 -100 0 0 -80z"/>
<path d="M3775 2967 c-148 -39 -238 -131 -264 -269 -12 -68 0 -162 30 -220
104 -204 426 -249 593 -82 173 172 113 470 -111 554 -70 26 -183 34 -248 17z
m183 -165 c20 -9 43 -33 60 -61 56 -95 23 -234 -64 -276 -46 -22 -121 -22
-161 -2 -29 15 -82 70 -83 85 -1 4 -5 27 -9 51 -16 80 21 170 84 204 52 28
112 27 173 -1z"/>
<path d="M4920 2635 l0 -335 95 0 95 0 0 335 0 335 -95 0 -95 0 0 -335z"/>
<path d="M5466 2936 c-84 -36 -126 -73 -164 -147 -74 -144 -45 -313 71 -416
132 -116 354 -102 472 29 57 64 80 130 80 233 -1 133 -55 225 -166 285 -53 28
-74 33 -148 37 -75 3 -94 1 -145 -21z m240 -80 c151 -70 180 -295 54 -417
-124 -121 -329 -74 -390 88 -67 180 43 353 225 353 42 0 75 -7 111 -24z"/>
<path d="M6117 2954 c-4 -4 -7 -153 -7 -331 l0 -323 45 0 45 0 0 196 c0 227 7
260 65 320 62 65 175 84 261 45 88 -40 104 -93 104 -358 l0 -203 46 0 46 0 -4
233 c-3 231 -4 233 -32 290 -18 37 -43 69 -67 87 -105 76 -299 61 -384 -29
l-30 -31 -5 52 c-5 52 -5 53 -40 56 -20 2 -39 0 -43 -4z"/>
<path d="M7297 2953 c-4 -3 -7 -152 -7 -330 l0 -323 45 0 45 0 0 330 0 330
-38 0 c-21 0 -42 -3 -45 -7z"/>
<path d="M7637 2954 c-4 -4 -7 -153 -7 -331 l0 -323 45 0 45 0 0 196 c0 126 4
211 12 237 17 55 82 122 133 136 97 26 201 2 243 -56 34 -48 41 -105 42 -315
l0 -198 46 0 46 0 -5 228 c-2 125 -10 243 -16 263 -18 58 -65 114 -118 140
-40 20 -63 24 -138 24 -79 0 -97 -4 -148 -28 -32 -16 -65 -41 -75 -55 l-17
-26 -5 54 c-5 55 -5 55 -40 58 -20 2 -39 0 -43 -4z"/>
<path d="M8633 2946 c-90 -29 -147 -80 -190 -171 -24 -52 -28 -72 -28 -150 0
-78 4 -97 28 -147 67 -136 226 -210 382 -178 64 13 144 51 172 82 16 18 16 20
-9 45 l-26 26 -36 -28 c-99 -76 -256 -70 -348 13 -43 38 -77 101 -78 140 l0
22 276 0 277 0 -6 65 c-9 91 -40 156 -102 213 -83 76 -203 102 -312 68z m202
-84 c63 -31 103 -81 123 -154 l10 -38 -234 0 c-268 0 -255 -6 -206 91 17 34
42 64 67 82 67 46 169 54 240 19z"/>
</g>
</svg>
